<?xml version="1.0" encoding="utf-8"?>
<!-- Generator: Adobe Illustrator 14.0.0, SVG Export Plug-In . SVG Version: 6.00 Build 43363)  -->
<!DOCTYPE svg PUBLIC "-//W3C//DTD SVG 1.1//EN" "http://www.w3.org/Graphics/SVG/1.1/DTD/svg11.dtd">
<svg version="1.1" id="Layer_1" xmlns="http://www.w3.org/2000/svg" xmlns:xlink="http://www.w3.org/1999/xlink" x="0px" y="0px"
	 width="200px" height="207.632px" viewBox="0 0 200 207.632" enable-background="new 0 0 200 207.632" xml:space="preserve">
<g>
	<defs>
		<rect id="SVGID_1_" y="0" width="200" height="207.632"/>
	</defs>
	<clipPath id="SVGID_2_">
		<use xlink:href="#SVGID_1_"  overflow="visible"/>
	</clipPath>
	<path clip-path="url(#SVGID_2_)" fill="#FFFFFF" d="M50.178,151.638c0.077,3.045-1.539,3.685-4.354,3.685
		c-2.42,0.024-4.325-0.604-4.354-3.685v-21.004h-6.507v21.411c0,3.179-1.643,3.277-4.37,3.277c-2.489,0-4.355-0.304-4.355-3.277
		v-21.411h-6.701v21.411c0,2.97-2.325,3.138-4.355,3.277c-1.811-0.028-4.354-0.356-4.354-3.277v-26.026
		c0-3.504,1.633-4.094,3.963-4.094h31.865c2.714,0,3.522,0.801,3.522,3.164V151.638z"/>
	<path clip-path="url(#SVGID_2_)" fill="#FFFFFF" d="M92.729,151.109c0,3.502-1.629,4.089-3.958,4.089h-28.83
		c-2.714,0-3.531-0.805-3.531-3.167v-27.137c-0.076-3.046,1.54-3.682,4.354-3.682c2.421-0.023,4.326,0.6,4.355,3.682v21.596h18.903
		v-22.004c0-2.969,2.324-3.146,4.353-3.285c1.811,0.029,4.354,0.363,4.354,3.285V151.109z"/>
	<path clip-path="url(#SVGID_2_)" fill="#FFFFFF" d="M129.875,134.232c3.701,0,4.174,1.363,4.175,4.176v13.99
		c0,1.992-1.132,3.121-3.12,3.121h-28.441c-2.595,0-3.213-1.359-3.213-4.273c0-2.898,0.407-4.307,3.213-4.307h22.816v-4.027h-21.69
		c-3.141-0.001-4.174-0.869-4.174-4.176v-13.19c0-3.312,0.737-4.175,4.174-4.175h27.808c2.703,0,2.735,2.822,2.735,4.175
		c0,1.848,0.05,4.175-2.735,4.175h-22.776v4.512H129.875z"/>
	<path clip-path="url(#SVGID_2_)" fill="#FFFFFF" d="M149.181,128.513v20.074v3.979c0,3.179-1.626,3.278-4.354,3.278
		c-2.488,0-4.37-0.305-4.37-3.278v-3.979v-20.074v-3.979c0-2.781,1.252-3.199,3.392-3.262c0.307-0.009,0.639,0,0.979,0
		c2.489,0,4.354,0.287,4.354,3.262V128.513z"/>
	<path clip-path="url(#SVGID_2_)" fill="#FFFFFF" d="M186.461,155.636h-27.083c-3.667,0-4.091-1.333-4.091-3.959v-26.722
		c0-2.517,1.234-3.53,3.432-3.53h27.335c3.046-0.076,3.45,1.836,3.45,4.65c0.024,2.42-0.369,4.16-3.45,4.189h-21.729v16.267h22.137
		c2.97,0,3.014,2.654,3.154,4.685C189.586,153.027,189.383,155.636,186.461,155.636"/>
	<path clip-path="url(#SVGID_2_)" fill="#DB3275" d="M190.83,110.119h-33.252c-3.092,0-7.794-2.707-7.794-7.704V8.132
		c0-4.235-3.413-7.632-7.648-7.632h-37.442c-4.234,0-7.647,3.397-7.647,7.632v38.677c0,5.066-2.95,8.696-8.193,8.696H56.734
		c-4.673,0-8.431,3.758-8.431,8.431v38.215c0,4.905-4.077,7.967-8.01,7.967H8.17c-4.526,0-8.17,3.644-8.17,8.17v39.97
		c0,4.526,3.644,8.17,8.17,8.17h80.738c5.485,0,8.138,5.169,8.138,8.18v24.876c0,4.234,3.413,7.648,7.647,7.648h37.442
		c4.235,0,7.648-3.414,7.648-7.648v-24.613c0-5.969,4.363-8.442,7.644-8.442h33.402c4.526,0,8.17-3.644,8.17-8.17v-39.97
		C199,113.762,195.356,110.119,190.83,110.119 M50.178,151.638c0.077,3.045-1.539,3.685-4.354,3.685
		c-2.42,0.024-4.325-0.604-4.354-3.685v-21.004h-6.507v21.411c0,3.179-1.643,3.277-4.37,3.277c-2.489,0-4.355-0.304-4.355-3.277
		v-21.411h-6.701v21.411c0,2.97-2.325,3.138-4.355,3.277c-1.811-0.028-4.354-0.356-4.354-3.277v-26.026
		c0-3.504,1.633-4.094,3.963-4.094h31.865c2.714,0,3.522,0.801,3.522,3.164V151.638z M92.729,151.109
		c0,3.502-1.629,4.089-3.958,4.089h-28.83c-2.714,0-3.531-0.805-3.531-3.167v-27.137c-0.076-3.046,1.54-3.682,4.354-3.682
		c2.421-0.023,4.326,0.6,4.355,3.682v21.596h18.903v-22.004c0-2.969,2.324-3.146,4.353-3.285c1.811,0.029,4.354,0.363,4.354,3.285
		V151.109z M129.875,134.232c3.701,0,4.174,1.363,4.175,4.176v13.99c0,1.992-1.132,3.121-3.12,3.121h-28.441
		c-2.595,0-3.213-1.359-3.213-4.273c0-2.898,0.407-4.307,3.213-4.307h22.816v-4.027h-21.69c-3.141-0.001-4.174-0.869-4.174-4.176
		v-13.19c0-3.312,0.737-4.175,4.174-4.175h27.808c2.703,0,2.735,2.822,2.735,4.175c0,1.848,0.05,4.175-2.735,4.175h-22.776v4.512
		H129.875z M149.181,128.513v20.074v3.979c0,3.179-1.626,3.278-4.354,3.278c-2.488,0-4.37-0.305-4.37-3.278v-3.979v-20.074v-3.979
		c0-2.781,1.252-3.199,3.392-3.262c0.307-0.009,0.639,0,0.979,0c2.489,0,4.354,0.287,4.354,3.262V128.513z M186.461,155.636h-27.083
		c-3.667,0-4.091-1.333-4.091-3.959v-26.722c0-2.517,1.234-3.53,3.432-3.53h27.335c3.046-0.076,3.45,1.836,3.45,4.65
		c0.024,2.42-0.369,4.16-3.45,4.189h-21.729v16.267h22.137c2.97,0,3.014,2.654,3.154,4.685
		C189.586,153.027,189.383,155.636,186.461,155.636"/>
</g>
</svg>
