<?xml version="1.0" encoding="utf-8"?>
<!-- Generator: Adobe Illustrator 14.0.0, SVG Export Plug-In . SVG Version: 6.00 Build 43363)  -->
<!DOCTYPE svg PUBLIC "-//W3C//DTD SVG 1.1//EN" "http://www.w3.org/Graphics/SVG/1.1/DTD/svg11.dtd">
<svg version="1.1" id="Calque_1_1_" xmlns="http://www.w3.org/2000/svg" xmlns:xlink="http://www.w3.org/1999/xlink" x="0px"
	 y="0px" width="201.037px" height="268.293px" viewBox="0 0 201.037 268.293" enable-background="new 0 0 201.037 268.293"
	 xml:space="preserve">
<polygon id="Bloc_1" points="21.94,189.145 125.624,189.145 125.624,166.244 97.314,148.803 0,148.803 0,172.762 "/>
<polygon id="Bloc_2" points="94.602,110.29 94.602,73.133 72.897,55.735 6.37,141.018 28.31,157.945 57.445,157.945 "/>
<polygon id="Bloc_3" points="104.038,15.748 80.683,46.004 80.683,141.195 102.623,157.945 125.507,157.945 125.507,33.146 "/>
<polygon id="Bloc_4" points="133.736,268.234 185.812,268.234 185.812,245.232 163.956,228.07 156.829,228.07 156.829,73.959 
	156.829,43.526 150.879,38.395 138.154,16.632 116.947,0 111.468,5.839 111.468,251.426 "/>
<polygon id="Bloc_5" points="179.487,148.803 156.795,148.803 156.795,183.307 164.359,189.32 200.995,189.32 200.995,166.201 "/>
<polygon id="Bloc_6" points="102.698,268.234 125.418,268.234 125.418,188.613 80.683,188.613 80.683,251.491 "/>
<polygon id="Bloc_7" points="49.719,228.07 49.719,251.249 71.482,268.234 94.661,268.234 94.661,245.232 73.251,228.07 "/>
<path id="Logo_face" fill="#FFFFFF" d="M125.53,189.361H21.94v-23.125h103.59V189.361z M201.037,166.236h-36.571v23.125h36.571
	V166.236z M94.854,245.286H71.493v23.007h23.361V245.286z M185.938,245.286v23.007h-52.149h52.149V245.286z M125.53,196.912h-22.89
	v71.381h22.89V196.912z M102.641,157.979h22.89V33.15l-22.89,29.968V157.979z M156.914,43.532l-23.125,30.44v163.055h23.125V43.532z
	 M133.789,23.003v37.52L150.956,38.4l-12.743-21.769L133.789,23.003z M94.618,73.146l-66.307,84.833l29.317,0.026l37.047-47.596
	L94.618,73.146z M185.938,245.286h-52.385v23.007h52.385V245.286z"/>
</svg>
