<?xml version="1.0" encoding="utf-8"?>
<!-- Generator: Adobe Illustrator 14.0.0, SVG Export Plug-In . SVG Version: 6.00 Build 43363)  -->
<!DOCTYPE svg PUBLIC "-//W3C//DTD SVG 1.1//EN" "http://www.w3.org/Graphics/SVG/1.1/DTD/svg11.dtd">
<svg version="1.1" id="Calque_1_1_" xmlns="http://www.w3.org/2000/svg" xmlns:xlink="http://www.w3.org/1999/xlink" x="0px"
	 y="0px" width="201.037px" height="268.293px" viewBox="0 0 201.037 268.293" enable-background="new 0 0 201.037 268.293"
	 xml:space="preserve">
<path id="Logo_face" fill="#FFFFFF" d="M125.53,189.361H21.94v-23.125h103.59V189.361z M201.037,166.236h-36.571v23.125h36.571
	V166.236z M94.854,245.286H71.493v23.007h23.361V245.286z M185.938,245.286v23.007h-52.149h52.149V245.286z M125.53,196.912h-22.89
	v71.381h22.89V196.912z M102.641,157.979h22.89V33.15l-22.89,29.968V157.979z M156.914,43.532l-23.125,30.44v163.055h23.125V43.532z
	 M133.789,23.003v37.52L150.956,38.4l-12.743-21.769L133.789,23.003z M94.618,73.146l-66.307,84.833l29.317,0.026l37.047-47.596
	L94.618,73.146z M185.938,245.286h-52.385v23.007h52.385V245.286z"/>
</svg>
