<?xml version="1.0" encoding="utf-8"?>
<!-- Generator: Adobe Illustrator 14.0.0, SVG Export Plug-In . SVG Version: 6.00 Build 43363)  -->
<!DOCTYPE svg PUBLIC "-//W3C//DTD SVG 1.1//EN" "http://www.w3.org/Graphics/SVG/1.1/DTD/svg11.dtd">
<svg version="1.1" id="Layer_1" xmlns="http://www.w3.org/2000/svg" xmlns:xlink="http://www.w3.org/1999/xlink" x="0px" y="0px"
	 width="121.866px" height="120.126px" viewBox="0 0 121.866 120.126" enable-background="new 0 0 121.866 120.126"
	 xml:space="preserve">
<g>
	<path fill="#FFFFFF" d="M108.241,71.317c-0.321-1.394-1.771-5.157-8.102-6.354c-0.971-0.2-0.508-0.093-1.794-0.429
		c-1.287-0.338-1.727-1.413-1.727-3.007v-0.922V25.671c0-7.334-6.398-12.139-11.735-12.139H62.812
		c-5.687,0.262-9.829,2.087-13.349,5.662L17.168,56.202c-2.668,3.055-3.656,7.688-3.656,11.894v16.158
		c-0.023,4.276,4.299,8.424,14.477,8.424h25.569h6.093c1.614,0,2.674,0.445,3.018,1.749c0.345,1.303,0.231,0.813,0.412,1.782
		c1.501,7.837,3.961,10.415,7.922,10.415c3.982,0,13.326,0,17.309,0c3.955,0,6.421-2.578,7.91-10.415
		c0.164-0.835,0.649-2.46,0.649-2.46c0.254-0.643,0.711-1.071,1.45-1.274c1.309-0.339,0.823-0.226,1.794-0.429
		c6.578-1.259,7.893-5.265,8.146-6.522c0.022-0.118,0.045-0.276,0.068-0.491c0,0,0-12.547,0-12.564
		C108.332,71.898,108.286,71.531,108.241,71.317 M79.196,53.548c0,3.27-2.003,4.511-4.051,4.511l-18.827-0.014
		c-2.093,0-3.475,0.598-4.119,1.32l-3.086,3.512c-0.846,0.998-0.344,2.025,0.875,2.025c0.096,0,25.157,0,25.157,0
		c2.048,0,4.051,1.213,4.051,4.468v1.428c0,3.25-2.003,4.491-4.051,4.491c0,0-39.448,0-40.046,0c-1.839,0-3.498-0.965-3.498-3.205
		c0-1.382-0.022-1.67-0.022-3.222c0-2.381,1.106-4.067,2.945-6.045l25.107-28.74c0,0,2.764-3.453,7.069-3.636
		c0.599,0,8.446-0.014,8.446-0.014c2.048,0,4.051,1.213,4.051,4.479v1.441c0,3.252-2.003,4.497-4.051,4.497h-4.739
		c-2.009,0-3.362,0.584-3.983,1.258l-3.131,3.619c-0.829,0.968-0.321,1.95,0.829,1.95c0.136,0,11.024,0,11.024,0
		c2.048,0,4.051,1.213,4.051,4.479V53.548z"/>
	<path fill="#FFFFFF" d="M62.812,0l-0.599,0.017c-9.049,0.429-16.367,3.588-22.375,9.695l-0.271,0.291L6.974,47.319
		C0.897,54.284,0,63.322,0,68.096v16.203c0,5.275,2.093,10.297,5.918,14.145c3.521,3.532,10.189,7.752,22.071,7.752
		c0,0,21.863,0,23.888,0c0.987,2.545,2.189,4.729,3.678,6.596c3.803,4.745,9.275,7.335,15.448,7.335h17.309
		c6.161,0,11.646-2.59,15.437-7.335c1.958-2.454,3.453-5.489,4.559-9.202c6.929-2.934,11.854-8.609,13.214-15.408
		c0-0.079,0.321-1.687,0.321-3.114l0.022-12.599c0-1.303-0.118-2.533-0.344-3.667l-0.045-0.276l-0.068-0.276
		c-0.53-2.257-2.877-9.73-11.283-14.04c0-1.856,0-28.585,0-28.585c0-6.782-2.641-13.18-7.481-18.012C97.815,2.779,91.349,0,84.883,0
		H62.812 M84.883,3.27c5.613,0,11.228,2.423,15.437,6.644c4.237,4.22,6.562,9.803,6.562,15.71V56.25l0.942,0.443
		c7.831,3.608,9.946,10.331,10.403,12.294c0,0,0.045,0.169,0.067,0.214c0,0.045,0.022,0.215,0.022,0.215
		c0.192,0.937,0.282,1.963,0.282,3.052l-0.022,12.599c0,1.105-0.26,2.472-0.26,2.482c-0.434,2.212-2.617,9.744-11.915,13.338
		l-0.784,0.287l-0.209,0.784c-1.016,3.65-2.393,6.522-4.209,8.808c-3.154,3.943-7.735,6.104-12.887,6.104H71.004
		c-5.157,0-9.738-2.161-12.892-6.104c-1.473-1.84-2.646-4.051-3.566-6.736l-0.389-1.106L27.99,102.94
		c-10.753,0-16.689-3.695-19.747-6.799C5.016,92.926,3.267,88.7,3.267,84.299L3.244,68.078c0-4.31,0.807-12.443,6.195-18.626
		c0,0,31.781-36.41,32.498-37.223C41.982,12.167,42.14,12,42.14,12c5.433-5.495,12.018-8.347,20.209-8.717
		c0,0,0.418-0.014,0.485-0.014C62.879,3.27,84.883,3.27,84.883,3.27z"/>
</g>
</svg>
