<?xml version="1.0" encoding="utf-8"?>
<!-- Generator: Adobe Illustrator 14.0.0, SVG Export Plug-In . SVG Version: 6.00 Build 43363)  -->
<!DOCTYPE svg PUBLIC "-//W3C//DTD SVG 1.1//EN" "http://www.w3.org/Graphics/SVG/1.1/DTD/svg11.dtd">
<svg version="1.1" id="Layer_1" xmlns="http://www.w3.org/2000/svg" xmlns:xlink="http://www.w3.org/1999/xlink" x="0px" y="0px"
	 width="536.497px" height="396.3px" viewBox="0 0 536.497 396.3" enable-background="new 0 0 536.497 396.3" xml:space="preserve">
<g>
	<path fill="#FFFFFF" d="M461.223,0v291.779h75.273V0H461.223z M100.634,291.779h333.479V0H100.634V291.779z M309.152,148.799
		h107.854v127.547h-24.851v-102.71h-16.645v102.71h-24.851v-102.71h-16.658v102.71h-24.851V148.799z M232.809,148.799h24.838
		v102.696h42.74v24.851h-67.578V148.799z M196.758,148.799h24.837v127.547h-24.837V148.799z M116.176,148.799h69.667v24.844h-44.829
		v27.198h43.087v24.838h-43.087v50.667h-24.838V148.799z M461.223,396.3h75.273v-77.41h-75.273V396.3z M73.525,0H0v396.3h434.113
		v-77.41H73.525V0z"/>
</g>
</svg>
