<?xml version="1.0" encoding="utf-8"?>
<!-- Generator: Adobe Illustrator 14.0.0, SVG Export Plug-In . SVG Version: 6.00 Build 43363)  -->
<!DOCTYPE svg PUBLIC "-//W3C//DTD SVG 1.1//EN" "http://www.w3.org/Graphics/SVG/1.1/DTD/svg11.dtd">
<svg version="1.1" id="Layer_1" xmlns="http://www.w3.org/2000/svg" xmlns:xlink="http://www.w3.org/1999/xlink" x="0px" y="0px"
	 width="46.201px" height="30.699px" viewBox="7.25 14.9 46.201 30.699" enable-background="new 7.25 14.9 46.201 30.699"
	 xml:space="preserve">
<g id="Layer_2">
</g>
<path fill="#FFFFFF" d="M43.35,21.9c-0.1,1.167-0.982,2.233-2.648,3.2c-1.834,1-2.885,1.967-3.15,2.9
	c0.102,0.067,0.367,0.15,0.801,0.25c0.334,0.067,0.566,0.2,0.699,0.4c-0.1,0.4-0.017,0.717,0.25,0.95
	c0.367,0.333,0.566,0.55,0.602,0.65c-0.034,0.933,0.466,1.55,1.5,1.85C41.167,32.232,40.634,32.2,39.8,32
	c0,0.033,0.033,0.283,0.101,0.75c0.066,0.434,0.033,0.732-0.101,0.9c-0.133-0.367-0.233-0.65-0.3-0.852
	c-0.134-0.365-0.316-0.6-0.55-0.699c-0.033,0.666-0.267,1.217-0.7,1.649c0.232-0.5,0.268-0.95,0.1-1.351
	c-0.3-0.5-0.533-0.966-0.699-1.399c-0.033-0.433-0.101-0.717-0.199-0.85c-0.334-0.467-0.566-0.8-0.7-1c-0.167-0.333,0-0.65,0.5-0.95
	c-0.134-1,0.565-1.967,2.101-2.9c1.699-1,2.601-2.066,2.699-3.2c0.2-1.667-0.449-2.983-1.949-3.95
	c-1.533-0.967-3.134-1.05-4.801-0.25c1.635-1.1,3.434-1.183,5.4-0.25C42.634,18.583,43.518,20,43.35,21.9z"/>
<path fill="#FFFFFF" d="M52.45,30.8h-1.2l-5.8,13.8h-4.5l-6.4-13.8h-0.7v-3.15h2.5v0.1c-0.267,0.233-0.449,0.533-0.55,0.9
	c-0.065,0.4,0.134,0.917,0.601,1.55l0.25,0.3l0.051,0.2l0.1,0.65l0.5,1.05c0.167,0.267,0.25,0.433,0.25,0.5
	c0.033,0.133,0,0.3-0.1,0.5c-0.233,0.433-0.135,0.8,0.3,1.1c0.167,0.1,0.333,0.15,0.5,0.15c0.2,0,0.417-0.084,0.649-0.25l0.199-0.2
	c0.168,0.233,0.385,0.35,0.65,0.35c0.3,0.066,0.566-0.05,0.8-0.35c0.2-0.267,0.3-0.634,0.3-1.101c0.301,0,0.567-0.051,0.801-0.149
	l1.25,3.25c0.467,1.366,0.717,2.35,0.75,2.95h0.101c0.065-0.7,0.366-1.733,0.899-3.102l2.199-5.25H45.6l-0.05-3.15h6.9V30.8z"/>
<path fill="#FFFFFF" d="M42.15,30.8H40.85l-0.1-0.9c-0.134-0.333-0.366-0.617-0.7-0.85c-0.099-0.099-0.147-0.115-0.149-0.05v-0.15
	c0.066-0.2,0.033-0.417-0.101-0.65c-0.166-0.267-0.35-0.45-0.55-0.55h2.9V30.8z"/>
<path fill="#FFFFFF" d="M31.9,18.6c3.633,1.267,6.449,2.167,8.449,2.7c-0.768,0.567-2.051,1.25-3.851,2.05
	c-1.8,0.833-3.083,1.517-3.851,2.05c0.268,1.467,0.268,2.417,0,2.85c-1.466-0.4-2.816-0.133-4.049,0.8
	c-0.333,0.233-1.25,1.167-2.75,2.8c-1.033-0.767-2.383-1.283-4.05-1.55c-1.8-0.267-3.367-0.1-4.7,0.5
	c-0.233-1.066-0.367-1.917-0.4-2.55c-3.833-1.6-6.65-2.85-8.45-3.75c4.533-2.633,9.717-5.5,15.55-8.6
	C25.467,16.367,28.167,17.267,31.9,18.6z M25.05,30.3c-0.733-0.933-1.683-1.55-2.85-1.85c-1.4-0.333-2.65-0.067-3.75,0.8
	C19.883,28.55,22.083,28.9,25.05,30.3z M31.35,25.15c0.267,1.067,0.4,1.667,0.4,1.8c0.167-0.233,0.217-0.583,0.15-1.05
	c-0.102-0.667-0.15-1.05-0.15-1.15c-1.433-1.4-3.567-2.1-6.4-2.1c-2.9,0.033-5,0.783-6.3,2.25c1.467-1.133,3.5-1.667,6.1-1.6
	C27.683,23.4,29.75,24.017,31.35,25.15z"/>
<path fill="#FFFFFF" d="M16.8,31.65c0.267,0.066,0.483,0.05,0.65-0.051c0.9-0.333,1.833-0.5,2.8-0.5h0.15v2.85h-3.6V31.65z"/>
<path fill="#FFFFFF" d="M32.4,29.1c0.232,0.033,0.466,0,0.699-0.1v4.95h-3.551v-3.1h-1.6c1.133-1.267,2.267-1.9,3.399-1.9L32.4,29.1
	z"/>
<path fill="#FFFFFF" d="M22.45,31.35c1.133,0.267,2.083,0.667,2.85,1.2c0.2,0.134,0.383,0.2,0.55,0.2c0.3,0,0.517-0.1,0.65-0.3
	l1-1.1v10h2v3.25h-9v-3.25h1.95V31.35z"/>
</svg>
