<?xml version="1.0" encoding="utf-8"?>
<!-- Generator: Adobe Illustrator 14.0.0, SVG Export Plug-In . SVG Version: 6.00 Build 43363)  -->
<!DOCTYPE svg PUBLIC "-//W3C//DTD SVG 1.1//EN" "http://www.w3.org/Graphics/SVG/1.1/DTD/svg11.dtd">
<svg version="1.1" id="Layer_1" xmlns="http://www.w3.org/2000/svg" xmlns:xlink="http://www.w3.org/1999/xlink" x="0px" y="0px"
	 width="91.016px" height="100px" viewBox="0 0 91.016 100" enable-background="new 0 0 91.016 100" xml:space="preserve">
<g>
	<path fill="#FFFFFF" d="M74.603,52.256c-0.4,0-0.604,0.275-1.345,1l-5.367,5.363c0.493,0.7,0.758,1.514,0.758,2.313
		c0,1.691-1.093,3.385-3.167,3.9l2.923,4.425h-2.736l-2.836-4.251h-1.334l-0.492,0.491v3.76h-3v-0.763l-4.756,4.752
		c-0.74,0.687-0.995,0.859-0.995,1.261c0,0.688,0.399,1,1.751,1h18.502c2.25,0,3-0.75,3-3V53.456
		C75.508,52.684,75.204,52.256,74.603,52.256"/>
	<path fill="#FFFFFF" d="M64.006,59.756h-3v2.251h3.147c0.531,0,0.948-0.132,1.206-0.381c0.186-0.18,0.289-0.426,0.289-0.693
		C65.648,60.39,65.219,59.756,64.006,59.756"/>
	<path fill="#FFFFFF" d="M25.002,47.255c0,2.25-0.75,3-3,3H3.5c-1.352,0-1.75-0.312-1.75-1c0-0.401,0.254-0.574,0.995-1.26
		l20.007-19.992c0.74-0.725,0.944-1,1.345-1c0.601,0,0.905,0.428,0.905,1.2V47.255z"/>
	<path fill="#FFFFFF" d="M50.256,22.002c0,2.25-0.75,3-3.001,3H28.753c-1.352,0-1.75-0.312-1.75-1c0-0.402,0.254-0.575,0.995-1.261
		L48.005,2.75c0.739-0.725,0.943-1,1.346-1c0.601,0,0.905,0.428,0.905,1.2V22.002z"/>
	<path fill="#FFFFFF" d="M51.006,79.248c0-2.25,0.75-3,3.001-3h18.502c1.351,0,1.75,0.312,1.75,1c0,0.401-0.256,0.574-0.995,1.26
		L53.257,98.5c-0.74,0.725-0.944,1-1.347,1c-0.6,0-0.904-0.428-0.904-1.2V79.248z"/>
	<path fill="#FFFFFF" d="M27.998,47.995l20.006-19.992c0.378-0.37,0.617-0.621,0.813-0.779c0.122-0.154,0.188-0.292,0.188-0.471
		c0-0.688-0.397-1-1.751-1H28.753c-2.25,0-3,0.75-3,3v19.053c0,0.772,0.304,1.2,0.905,1.2c0.194,0,0.345-0.073,0.529-0.22
		C27.338,48.595,27.588,48.374,27.998,47.995"/>
	<path fill="#FFFFFF" d="M50.256,47.255c0,2.25-0.75,3-3.001,3H28.753c-1.352,0-1.75-0.312-1.75-1c0-0.401,0.254-0.574,0.995-1.26
		l20.006-19.992c0.739-0.725,0.943-1,1.346-1c0.601,0,0.905,0.428,0.905,1.2V47.255z"/>
	<path fill="#FFFFFF" d="M53.251,47.995l20.008-19.992c0.377-0.369,0.613-0.619,0.809-0.778c0.122-0.154,0.191-0.292,0.191-0.472
		c0-0.688-0.399-1-1.75-1H54.007c-2.251,0-3.001,0.75-3.001,3v19.053c0,0.772,0.304,1.2,0.904,1.2c0.194,0,0.346-0.073,0.529-0.22
		C52.592,48.595,52.842,48.374,53.251,47.995"/>
	<path fill="#FFFFFF" d="M75.508,47.255c0,2.25-0.75,3-3,3H54.006c-1.352,0-1.751-0.312-1.751-1c0-0.401,0.256-0.574,0.995-1.26
		l20.008-19.992c0.74-0.725,0.943-1,1.345-1c0.601,0,0.905,0.428,0.905,1.2V47.255z"/>
	<path fill="#FFFFFF" d="M53.251,22.742L73.259,2.75c0.377-0.37,0.613-0.62,0.809-0.779C74.19,1.818,74.259,1.68,74.259,1.5
		c0-0.688-0.399-1-1.75-1H54.007c-2.251,0-3.001,0.75-3.001,3.001v19.052c0,0.772,0.304,1.2,0.904,1.2
		c0.194,0,0.346-0.073,0.528-0.22C52.591,23.342,52.842,23.121,53.251,22.742"/>
	<path fill="#FFFFFF" d="M75.508,22.002c0,2.25-0.75,3-3,3H54.006c-1.352,0-1.751-0.312-1.751-1c0-0.402,0.256-0.575,0.995-1.261
		L73.258,2.75c0.74-0.725,0.943-1,1.345-1c0.601,0,0.905,0.428,0.905,1.2V22.002z"/>
	<polygon fill="#FFFFFF" points="8.75,61.839 8.75,69.197 12.395,65.507 11.2,65.507 	"/>
	<path fill="#FFFFFF" d="M2.745,73.247l3.993-3.989H5.75V57.006h3.381l3.369,5.046l3.353-5.046h3.146l3.753-3.75
		c0.377-0.369,0.615-0.619,0.81-0.778c0.122-0.154,0.19-0.292,0.19-0.472c0-0.688-0.398-1-1.75-1H3.5c-2.25,0-3,0.75-3,3v19.052
		c0,0.772,0.305,1.2,0.906,1.2c0.193,0,0.344-0.072,0.528-0.221C2.086,73.847,2.336,73.626,2.745,73.247"/>
	<path fill="#FFFFFF" d="M24.097,52.256c-0.401,0-0.604,0.275-1.345,1l-3.753,3.75h0.253v12.252h-3v-7.432l-2.447,3.681h-2.606
		l-0.283-0.424L8.75,67.246v2.012H6.738l-3.993,3.989c-0.741,0.687-0.995,0.859-0.995,1.261c0,0.688,0.398,1,1.75,1h18.502
		c2.25,0,3-0.75,3-3V53.456C25.002,52.684,24.698,52.256,24.097,52.256"/>
	<path fill="#FFFFFF" d="M38.006,59.579c-1.619,0-3.253,1.215-3.253,3.928c0,1.723,0.799,2.683,1.774,3.133l4.549-4.606
		C40.593,60.36,39.302,59.579,38.006,59.579"/>
	<path fill="#FFFFFF" d="M68.478,59.857l0.005-0.005c-0.114-0.392-0.29-0.768-0.523-1.119C68.19,59.086,68.366,59.466,68.478,59.857
		"/>
	<path fill="#FFFFFF" d="M53.251,73.247l4.756-4.752V56.756h6c1.853,0,3.172,0.816,3.915,1.914c-0.012-0.017-0.02-0.034-0.03-0.051
		l5.367-5.363c0.377-0.368,0.612-0.619,0.808-0.777c0.123-0.155,0.192-0.293,0.192-0.473c0-0.688-0.399-1-1.75-1H54.007
		c-2.251,0-3.001,0.75-3.001,3v19.052c0,0.772,0.304,1.2,0.904,1.2c0.194,0,0.346-0.072,0.529-0.221
		C52.592,73.847,52.842,73.626,53.251,73.247"/>
	<path fill="#FFFFFF" d="M65.359,61.626c0.187-0.18,0.288-0.426,0.288-0.693c0-0.021-0.005-0.044-0.007-0.066l-1.117,1.116
		C64.88,61.935,65.165,61.814,65.359,61.626"/>
	<polygon fill="#FFFFFF" points="81.766,69.681 81.766,56.756 90.516,56.756 90.516,59.756 84.766,59.756 84.766,61.702 
		90.141,61.702 90.141,64.702 84.766,64.702 84.766,66.679 90.515,66.676 90.518,69.676 	"/>
	<path fill="#FFFFFF" d="M37.992,66.966L37.992,66.966c0.863,0,1.693-0.31,2.278-0.849c0.665-0.611,1.016-1.515,1.016-2.61
		c0-1.191-0.328-2.077-0.823-2.715l-5.01,5.006C36.098,66.625,37.088,66.965,37.992,66.966"/>
	<path fill="#FFFFFF" d="M27.998,73.247l5.324-5.319c0.311,0.349,0.66,0.651,1.033,0.911l0.003-0.002
		c-1.52-1.056-2.605-2.842-2.605-5.33c0-4.548,3.146-6.928,6.253-6.928c1.794,0,3.592,0.795,4.803,2.328
		c-0.068-0.085-0.134-0.174-0.205-0.255l5.4-5.396c0.378-0.37,0.616-0.62,0.813-0.779c0.122-0.153,0.188-0.292,0.188-0.471
		c0-0.688-0.397-1-1.751-1H28.753c-2.25,0-3,0.75-3,3l-0.001,19.052c0,0.772,0.305,1.2,0.906,1.2c0.194,0,0.345-0.072,0.53-0.222
		C27.34,73.846,27.59,73.626,27.998,73.247"/>
	<path fill="#FFFFFF" d="M42.909,59.032c0.156,0.208,0.301,0.428,0.434,0.661C43.209,59.461,43.064,59.24,42.909,59.032"/>
	<path fill="#FFFFFF" d="M49.351,52.256c-0.401,0-0.605,0.275-1.347,1l-5.4,5.396c1.016,1.152,1.682,2.773,1.682,4.854
		c0,2.473-1.079,3.984-1.984,4.817c-1.15,1.059-2.68,1.642-4.31,1.642h-0.001c-1.728-0.001-3.468-0.692-4.669-2.038l-5.324,5.319
		c-0.741,0.687-0.995,0.859-0.995,1.261c0,0.688,0.398,1,1.75,1h18.501c2.251,0,3.001-0.75,3.001-3V53.456
		C50.255,52.684,49.952,52.256,49.351,52.256"/>
</g>
</svg>
