<?xml version="1.0" encoding="utf-8"?>
<!-- Generator: Adobe Illustrator 14.0.0, SVG Export Plug-In . SVG Version: 6.00 Build 43363)  -->
<!DOCTYPE svg PUBLIC "-//W3C//DTD SVG 1.1//EN" "http://www.w3.org/Graphics/SVG/1.1/DTD/svg11.dtd">
<svg version="1.1" id="Layer_1" xmlns="http://www.w3.org/2000/svg" xmlns:xlink="http://www.w3.org/1999/xlink" x="0px" y="0px"
	 width="46.201px" height="30.699px" viewBox="7.25 14.9 46.201 30.699" enable-background="new 7.25 14.9 46.201 30.699"
	 xml:space="preserve">
<g id="Layer_2">
</g>
<g id="Layer_3">
	<path fill="#FFFFFF" d="M52.45,26.65h-6.9c-0.268,0-0.524,0.107-0.713,0.298c-0.188,0.191-0.291,0.45-0.287,0.717l0.05,3.15
		c0.008,0.463,0.33,0.849,0.76,0.955l-1.61,3.848l-1.104-2.871c0.086-0.346,0.088-0.715-0.01-1.071
		c0.309-0.17,0.518-0.499,0.518-0.875v-3.15c0-0.552-0.447-1-1-1h-2.084c0.313-0.212,0.688-0.44,1.136-0.685
		c1.958-1.136,3.017-2.475,3.144-3.978c0.143-1.614-0.3-3.833-3.217-5.241c-2.279-1.082-4.47-0.967-6.388,0.324
		c-0.435,0.293-0.569,0.872-0.31,1.327c0.004,0.008,0.012,0.012,0.018,0.021c-0.703-0.238-1.438-0.489-2.213-0.759
		c-3.737-1.335-6.485-2.25-8.167-2.721c-0.248-0.07-0.513-0.041-0.739,0.08C17.51,18.11,12.267,21.01,7.748,23.635
		C7.43,23.82,7.239,24.164,7.25,24.531c0.011,0.367,0.224,0.699,0.552,0.863c1.722,0.861,4.397,2.053,7.955,3.545
		c0.051,0.424,0.131,0.912,0.242,1.473v0.637c-0.128,0.171-0.2,0.381-0.2,0.6v2.301c0,0.553,0.448,1,1,1h3.6c0.552,0,1-0.447,1-1
		v-2.686c0.017,0.011,0.034,0.022,0.052,0.034c-0.001,0.018-0.001,0.035-0.001,0.052v9H20.5c-0.552,0-1,0.446-1,1v3.25
		c0,0.553,0.448,1,1,1h9c0.552,0,1-0.447,1-1v-3.25c0-0.554-0.448-1-1-1h-1v-8.5l0.05,2.1c0,0.553,0.448,1,1,1h3.55
		c0.553,0,1-0.447,1-1v-1.744l5.943,12.814c0.164,0.354,0.518,0.578,0.907,0.578h4.5c0.401,0,0.766-0.24,0.922-0.611L51.914,31.8
		h0.536c0.553,0,1-0.448,1-1v-3.15C53.45,27.098,53.003,26.65,52.45,26.65z M41.055,21.995c0,0.006,0,0.012,0,0.018
		c-0.087,0.98-1.25,1.86-2.226,2.433c-1.06,0.646-1.784,1.324-2.192,2.056c-0.226,0.01-0.443,0.06-0.652,0.148H33.85
		c-0.011,0-0.021,0.006-0.031,0.006c-0.016-0.241-0.039-0.494-0.076-0.771c0.74-0.447,1.803-0.992,3.165-1.623
		c1.885-0.838,3.206-1.544,4.038-2.16C40.986,22.073,41.02,22.032,41.055,21.995z M35.732,18.801
		c1.358-0.65,2.594-0.587,3.824,0.189c0.646,0.416,1.073,0.894,1.309,1.453c-0.079-0.048-0.166-0.085-0.258-0.11
		c-1.289-0.344-2.953-0.853-4.95-1.512C35.682,18.812,35.708,18.813,35.732,18.801z"/>
</g>
<g id="Selected_Items">
	
		<linearGradient id="SVGID_1_" gradientUnits="userSpaceOnUse" x1="35.2754" y1="36.623" x2="43.3254" y2="36.623" gradientTransform="matrix(1 0 0 -1 0 62)">
		<stop  offset="0" style="stop-color:#F16C35"/>
		<stop  offset="1" style="stop-color:#D25E2E"/>
	</linearGradient>
	<path fill="url(#SVGID_1_)" d="M43.35,21.9c-0.1,1.167-0.982,2.233-2.648,3.2c-1.834,1-2.885,1.967-3.15,2.9
		c0.102,0.067,0.367,0.15,0.801,0.25c0.334,0.067,0.566,0.2,0.699,0.4c-0.1,0.4-0.017,0.717,0.25,0.95
		c0.367,0.333,0.566,0.55,0.602,0.65c-0.034,0.933,0.466,1.55,1.5,1.85C41.167,32.232,40.634,32.2,39.8,32
		c0,0.033,0.033,0.283,0.101,0.75c0.066,0.434,0.033,0.732-0.101,0.9c-0.133-0.367-0.233-0.65-0.3-0.852
		c-0.134-0.365-0.316-0.6-0.55-0.699c-0.033,0.666-0.267,1.217-0.7,1.649c0.232-0.5,0.268-0.95,0.1-1.351
		c-0.3-0.5-0.533-0.966-0.699-1.399c-0.033-0.433-0.101-0.717-0.199-0.85c-0.334-0.467-0.566-0.8-0.7-1
		c-0.167-0.333,0-0.65,0.5-0.95c-0.134-1,0.565-1.967,2.101-2.9c1.699-1,2.601-2.066,2.699-3.2c0.2-1.667-0.449-2.983-1.949-3.95
		c-1.533-0.967-3.134-1.05-4.801-0.25c1.635-1.1,3.434-1.183,5.4-0.25C42.634,18.583,43.518,20,43.35,21.9z"/>
	
		<linearGradient id="SVGID_2_" gradientUnits="userSpaceOnUse" x1="10.9922" y1="35.3242" x2="47.9955" y2="25.5329" gradientTransform="matrix(1 0 0 -1 0 62)">
		<stop  offset="0" style="stop-color:#F16C35"/>
		<stop  offset="1" style="stop-color:#D25E2E"/>
	</linearGradient>
	<path fill="url(#SVGID_2_)" d="M52.45,30.8h-1.2l-5.8,13.8h-4.5l-6.4-13.8h-0.7v-3.15h2.5v0.1c-0.267,0.233-0.449,0.533-0.55,0.9
		c-0.065,0.4,0.134,0.917,0.601,1.55l0.25,0.3l0.051,0.2l0.1,0.65l0.5,1.05c0.167,0.267,0.25,0.433,0.25,0.5
		c0.033,0.133,0,0.3-0.1,0.5c-0.233,0.433-0.135,0.8,0.3,1.1c0.167,0.1,0.333,0.15,0.5,0.15c0.2,0,0.417-0.084,0.649-0.25l0.199-0.2
		c0.168,0.233,0.385,0.35,0.65,0.35c0.3,0.066,0.566-0.05,0.8-0.35c0.2-0.267,0.3-0.634,0.3-1.101c0.301,0,0.567-0.051,0.801-0.149
		l1.25,3.25c0.467,1.366,0.717,2.35,0.75,2.95h0.101c0.065-0.7,0.366-1.733,0.899-3.102l2.199-5.25H45.6l-0.05-3.15h6.9V30.8z"/>
	
		<linearGradient id="SVGID_3_" gradientUnits="userSpaceOnUse" x1="39.25" y1="32.7754" x2="42.1504" y2="32.7754" gradientTransform="matrix(1 0 0 -1 0 62)">
		<stop  offset="0" style="stop-color:#F16C35"/>
		<stop  offset="1" style="stop-color:#D25E2E"/>
	</linearGradient>
	<path fill="url(#SVGID_3_)" d="M42.15,30.8H40.85l-0.1-0.9c-0.134-0.333-0.366-0.617-0.7-0.85c-0.099-0.099-0.147-0.115-0.149-0.05
		v-0.15c0.066-0.2,0.033-0.417-0.101-0.65c-0.166-0.267-0.35-0.45-0.55-0.55h2.9V30.8z"/>
	
		<linearGradient id="SVGID_4_" gradientUnits="userSpaceOnUse" x1="49.4951" y1="30.8511" x2="23.1967" y2="37.9119" gradientTransform="matrix(1 0 0 -1 0 62)">
		<stop  offset="0" style="stop-color:#F16C35"/>
		<stop  offset="1" style="stop-color:#D25E2E"/>
	</linearGradient>
	<path fill="url(#SVGID_4_)" d="M31.9,18.6c3.633,1.267,6.449,2.167,8.449,2.7c-0.768,0.567-2.051,1.25-3.851,2.05
		c-1.8,0.833-3.083,1.517-3.851,2.05c0.268,1.467,0.268,2.417,0,2.85c-1.466-0.4-2.816-0.133-4.049,0.8
		c-0.333,0.233-1.25,1.167-2.75,2.8c-1.033-0.767-2.383-1.283-4.05-1.55c-1.8-0.267-3.367-0.1-4.7,0.5
		c-0.233-1.066-0.367-1.917-0.4-2.55c-3.833-1.6-6.65-2.85-8.45-3.75c4.533-2.633,9.717-5.5,15.55-8.6
		C25.467,16.367,28.167,17.267,31.9,18.6z M25.05,30.3c-0.733-0.933-1.683-1.55-2.85-1.85c-1.4-0.333-2.65-0.067-3.75,0.8
		C19.883,28.55,22.083,28.9,25.05,30.3z M31.35,25.15c0.267,1.067,0.4,1.667,0.4,1.8c0.167-0.233,0.217-0.583,0.15-1.05
		c-0.102-0.667-0.15-1.05-0.15-1.15c-1.433-1.4-3.567-2.1-6.4-2.1c-2.9,0.033-5,0.783-6.3,2.25c1.467-1.133,3.5-1.667,6.1-1.6
		C27.683,23.4,29.75,24.017,31.35,25.15z"/>
	
		<linearGradient id="SVGID_5_" gradientUnits="userSpaceOnUse" x1="16.7998" y1="29.4746" x2="20.3999" y2="29.4746" gradientTransform="matrix(1 0 0 -1 0 62)">
		<stop  offset="0" style="stop-color:#F16C35"/>
		<stop  offset="1" style="stop-color:#D25E2E"/>
	</linearGradient>
	<path fill="url(#SVGID_5_)" d="M16.8,31.65c0.267,0.066,0.483,0.05,0.65-0.051c0.9-0.333,1.833-0.5,2.8-0.5h0.15v2.85h-3.6V31.65z"
		/>
	
		<linearGradient id="SVGID_6_" gradientUnits="userSpaceOnUse" x1="27.9248" y1="30.5498" x2="33.0752" y2="30.5498" gradientTransform="matrix(1 0 0 -1 0 62)">
		<stop  offset="0" style="stop-color:#F16C35"/>
		<stop  offset="1" style="stop-color:#D25E2E"/>
	</linearGradient>
	<path fill="url(#SVGID_6_)" d="M32.4,29.1c0.232,0.033,0.466,0,0.699-0.1v4.95h-3.551v-3.1h-1.6c1.133-1.267,2.267-1.9,3.399-1.9
		L32.4,29.1z"/>
	
		<linearGradient id="SVGID_7_" gradientUnits="userSpaceOnUse" x1="20.5" y1="24.0254" x2="29.5" y2="24.0254" gradientTransform="matrix(1 0 0 -1 0 62)">
		<stop  offset="0" style="stop-color:#F16C35"/>
		<stop  offset="1" style="stop-color:#D25E2E"/>
	</linearGradient>
	<path fill="url(#SVGID_7_)" d="M22.45,31.35c1.133,0.267,2.083,0.667,2.85,1.2c0.2,0.134,0.383,0.2,0.55,0.2
		c0.3,0,0.517-0.1,0.65-0.3l1-1.1v10h2v3.25h-9v-3.25h1.95V31.35z"/>
</g>
</svg>
